<?xml version="1.0" encoding="utf-8"?><svg version="1.1" id="Layer_1" xmlns="http://www.w3.org/2000/svg" xmlns:xlink="http://www.w3.org/1999/xlink" x="0px" y="0px" viewBox="0 0 122.88 105.26" style="enable-background:new 0 0 122.88 105.26" xml:space="preserve"><g><path d="M75.24,4.25c-0.18-0.98,0.05-1.93,0.58-2.69c0.52-0.76,1.33-1.31,2.31-1.49c0.98-0.18,1.93,0.05,2.69,0.58 c0.76,0.52,1.31,1.33,1.49,2.31l7.66,41.4c0.17,0.97-0.06,1.92-0.58,2.67c-0.52,0.76-1.33,1.31-2.31,1.49l-0.01,0 c-0.97,0.17-1.92-0.06-2.67-0.58c-0.76-0.52-1.31-1.33-1.49-2.31L75.24,4.25L75.24,4.25z M17.4,27.85 c0.03-0.03,0.07-0.05,0.11-0.07c0.93-0.58,2.01-0.74,3-0.53c1,0.21,1.92,0.8,2.53,1.71c0.03,0.04,0.05,0.07,0.07,0.11 c0.58,0.93,0.74,2.01,0.53,3c-0.22,1.02-0.82,1.95-1.76,2.57c-3.49,2.26-6.28,4.85-8.41,7.62c-2.27,2.96-3.79,6.12-4.6,9.31 c-0.54,2.1-0.78,4.23-0.73,6.31c0.05,2.12,0.4,4.2,1.02,6.19c0.62,1.97,1.52,3.84,2.67,5.55c1.13,1.68,2.52,3.22,4.14,4.56 c2.33,1.92,5.14,3.44,8.4,4.4c3.07,0.9,6.54,1.31,10.37,1.1c0.92-0.05,1.8,0.21,2.51,0.7c0.72,0.49,1.28,1.21,1.57,2.06 c1.03,2.78,2.54,5.17,4.4,7.16c1.98,2.12,4.36,3.8,6.98,5.02c1.61,0.75,3.31,1.33,5.07,1.74c1.79,0.42,3.63,0.66,5.48,0.73 c1.88,0.07,3.77-0.05,5.64-0.34c1.84-0.29,3.67-0.76,5.44-1.41c3.21-1.17,6.22-2.94,8.82-5.3c2.42-2.21,4.49-4.93,6-8.19 c0.35-0.74,0.89-1.33,1.54-1.73c0.67-0.41,1.45-0.63,2.24-0.61h0c3.69,0.04,6.94-0.43,9.77-1.32c3-0.95,5.52-2.36,7.56-4.12 c1.56-1.34,2.86-2.9,3.89-4.61c1.08-1.78,1.86-3.72,2.37-5.75c0.51-2.05,0.74-4.2,0.69-6.38c-0.05-2.19-0.39-4.41-1-6.6 c-0.93-3.31-2.49-6.53-4.68-9.43c-2.06-2.73-4.68-5.18-7.84-7.15c-0.96-0.59-1.58-1.52-1.82-2.54c-0.24-1.01-0.09-2.12,0.51-3.08 c0.59-0.96,1.52-1.58,2.54-1.82c1.02-0.24,2.12-0.09,3.08,0.51c4.05,2.52,7.4,5.66,10.05,9.18c2.81,3.73,4.82,7.88,6.02,12.16 c0.8,2.85,1.23,5.76,1.29,8.64c0.06,2.88-0.24,5.72-0.92,8.45c-0.71,2.84-1.82,5.56-3.34,8.07c-1.47,2.41-3.31,4.62-5.53,6.53 c-2.58,2.22-5.66,4.03-9.24,5.31c-3.24,1.15-6.9,1.87-10.97,2.04c-2.02,3.61-4.58,6.66-7.5,9.16c-3.22,2.75-6.87,4.83-10.74,6.24 c-2.25,0.82-4.57,1.42-6.93,1.79c-2.38,0.38-4.79,0.52-7.18,0.44c-2.41-0.08-4.8-0.4-7.11-0.94c-2.29-0.54-4.51-1.3-6.64-2.29 c-3.22-1.5-6.17-3.51-8.71-6.03c-2.3-2.28-4.26-4.98-5.75-8.08c-4.19-0.05-8.04-0.71-11.5-1.88c-3.83-1.29-7.19-3.19-10.03-5.54 c-2.23-1.84-4.14-3.97-5.71-6.3c-1.6-2.37-2.83-4.96-3.69-7.67c-0.85-2.69-1.31-5.51-1.38-8.39c-0.07-2.82,0.26-5.7,0.99-8.55 c1.07-4.17,3.01-8.28,5.9-12.08C9.57,33.94,13.05,30.67,17.4,27.85L17.4,27.85z M41.32,2.99c0.17-0.98,0.72-1.8,1.47-2.33 l0.05-0.03c0.73-0.5,1.65-0.74,2.59-0.59l0.09,0.02c0.96,0.18,1.76,0.72,2.29,1.46c0.53,0.74,0.77,1.68,0.62,2.64l-7.3,42.16 c-0.17,0.98-0.72,1.8-1.47,2.33l-0.05,0.03c-0.74,0.51-1.68,0.74-2.64,0.58c-0.98-0.17-1.8-0.72-2.33-1.47l-0.03-0.05 c-0.51-0.75-0.74-1.68-0.58-2.64L41.32,2.99L41.32,2.99z M57.68,13.32c-0.02-0.99,0.37-1.9,1.01-2.56 c0.64-0.66,1.53-1.07,2.52-1.09c0.99-0.02,1.9,0.37,2.56,1.01c0.66,0.64,1.07,1.53,1.09,2.52l0.91,52.15 c0.02,0.99-0.37,1.9-1.01,2.56c-0.64,0.66-1.53,1.07-2.52,1.09c-0.99,0.02-1.9-0.37-2.56-1.01c-0.66-0.64-1.07-1.53-1.09-2.52 L57.68,13.32L57.68,13.32z"/></g></svg>